<svg xmlns="http://www.w3.org/2000/svg" width="24" height="24" viewBox="0 0 24 24" fill="none">
  <path d="M12 1.999C17.524 1.999 22.002 6.477 22.002 12.001C22.002 17.524 17.524 22.002 12 22.002C6.47599 22.002 1.99799 17.524 1.99799 12.001C1.99799 6.477 6.47599 1.999 12 1.999ZM12 3.499C10.8758 3.48681 9.76035 3.6977 8.7182 4.11947C7.67606 4.54124 6.72792 5.16552 5.92865 5.95617C5.12938 6.74681 4.49486 7.68813 4.06181 8.72564C3.62876 9.76315 3.40578 10.8762 3.40578 12.0005C3.40578 13.1248 3.62876 14.2379 4.06181 15.2754C4.49486 16.3129 5.12938 17.2542 5.92865 18.0448C6.72792 18.8355 7.67606 19.4598 8.7182 19.8815C9.76035 20.3033 10.8758 20.5142 12 20.502C14.232 20.4678 16.361 19.5571 17.9273 17.9665C19.4937 16.376 20.3716 14.2333 20.3716 12.001C20.3716 9.76871 19.4937 7.62598 17.9273 6.03546C16.361 4.44493 14.232 3.53424 12 3.5V3.499ZM8.46199 14.784C8.88273 15.32 9.41994 15.7532 10.0329 16.0509C10.6459 16.3486 11.3186 16.5028 12 16.502C12.6806 16.5028 13.3524 16.3489 13.9648 16.0519C14.5772 15.755 15.1141 15.3228 15.535 14.788C15.6583 14.6319 15.8386 14.5312 16.0362 14.5081C16.2337 14.4849 16.4324 14.5412 16.5885 14.6645C16.7446 14.7878 16.8453 14.9681 16.8684 15.1657C16.8916 15.3632 16.8353 15.5619 16.712 15.718C16.1507 16.4306 15.435 17.0064 14.6187 17.4021C13.8025 17.7977 12.9071 18.0028 12 18.002C11.0917 18.0027 10.1952 17.797 9.3782 17.4002C8.56118 17.0035 7.84506 16.4262 7.28399 15.712C7.16618 15.5554 7.11438 15.3588 7.13966 15.1645C7.16495 14.9701 7.26532 14.7934 7.41928 14.6721C7.57324 14.5508 7.76857 14.4946 7.96345 14.5155C8.15833 14.5364 8.33727 14.6328 8.46199 14.784ZM8.99999 8.75C9.16705 8.74527 9.33336 8.7741 9.48909 8.83476C9.64481 8.89543 9.7868 8.98671 9.90663 9.1032C10.0265 9.2197 10.1217 9.35904 10.1868 9.51299C10.2518 9.66694 10.2853 9.83237 10.2853 9.9995C10.2853 10.1666 10.2518 10.3321 10.1868 10.486C10.1217 10.64 10.0265 10.7793 9.90663 10.8958C9.7868 11.0123 9.64481 11.1036 9.48909 11.1642C9.33336 11.2249 9.16705 11.2537 8.99999 11.249C8.67472 11.2398 8.36586 11.1041 8.13904 10.8708C7.91223 10.6375 7.78534 10.3249 7.78534 9.9995C7.78534 9.6741 7.91223 9.36153 8.13904 9.1282C8.36586 8.89488 8.67472 8.7592 8.99999 8.75ZM15 8.75C15.167 8.74527 15.3334 8.7741 15.4891 8.83476C15.6448 8.89543 15.7868 8.98671 15.9066 9.1032C16.0265 9.2197 16.1217 9.35904 16.1868 9.51299C16.2518 9.66694 16.2853 9.83237 16.2853 9.9995C16.2853 10.1666 16.2518 10.3321 16.1868 10.486C16.1217 10.64 16.0265 10.7793 15.9066 10.8958C15.7868 11.0123 15.6448 11.1036 15.4891 11.1642C15.3334 11.2249 15.167 11.2537 15 11.249C14.6747 11.2398 14.3659 11.1041 14.139 10.8708C13.9122 10.6375 13.7853 10.3249 13.7853 9.9995C13.7853 9.6741 13.9122 9.36153 14.139 9.1282C14.3659 8.89488 14.6747 8.7592 15 8.75Z" fill="#707991"/>
</svg>